<mxfile host="app.diagrams.net" agent="Mozilla/5.0 (Windows NT 10.0; Win64; x64) AppleWebKit/537.36 (KHTML, like Gecko) Chrome/128.0.0.0 Safari/537.36" version="24.7.8">
  <diagram name="Página-1" id="pnDk3rUw2MaqKtfloLdm">
    <mxGraphModel dx="1500" dy="807" grid="1" gridSize="10" guides="1" tooltips="1" connect="1" arrows="1" fold="1" page="1" pageScale="1" pageWidth="827" pageHeight="1169" math="0" shadow="0">
      <root>
        <mxCell id="0" />
        <mxCell id="1" parent="0" />
        <mxCell id="D2Ly7EHgwtFrvdyQ0RBK-11" value="" style="edgeStyle=orthogonalEdgeStyle;rounded=0;orthogonalLoop=1;jettySize=auto;html=1;" edge="1" parent="1" target="D2Ly7EHgwtFrvdyQ0RBK-10">
          <mxGeometry relative="1" as="geometry">
            <mxPoint x="290" y="210" as="sourcePoint" />
          </mxGeometry>
        </mxCell>
        <mxCell id="D2Ly7EHgwtFrvdyQ0RBK-31" value="n" style="edgeLabel;html=1;align=center;verticalAlign=middle;resizable=0;points=[];" vertex="1" connectable="0" parent="D2Ly7EHgwtFrvdyQ0RBK-11">
          <mxGeometry x="0.0912" relative="1" as="geometry">
            <mxPoint as="offset" />
          </mxGeometry>
        </mxCell>
        <mxCell id="D2Ly7EHgwtFrvdyQ0RBK-28" style="edgeStyle=orthogonalEdgeStyle;rounded=0;orthogonalLoop=1;jettySize=auto;html=1;entryX=0;entryY=0.5;entryDx=0;entryDy=0;" edge="1" parent="1" source="D2Ly7EHgwtFrvdyQ0RBK-10" target="D2Ly7EHgwtFrvdyQ0RBK-22">
          <mxGeometry relative="1" as="geometry" />
        </mxCell>
        <mxCell id="D2Ly7EHgwtFrvdyQ0RBK-32" value="n" style="edgeLabel;html=1;align=center;verticalAlign=middle;resizable=0;points=[];" vertex="1" connectable="0" parent="D2Ly7EHgwtFrvdyQ0RBK-28">
          <mxGeometry x="-0.4053" y="-2" relative="1" as="geometry">
            <mxPoint as="offset" />
          </mxGeometry>
        </mxCell>
        <mxCell id="D2Ly7EHgwtFrvdyQ0RBK-10" value="possui" style="rhombus;whiteSpace=wrap;html=1;rounded=0;" vertex="1" parent="1">
          <mxGeometry x="374" y="170" width="80" height="80" as="geometry" />
        </mxCell>
        <mxCell id="D2Ly7EHgwtFrvdyQ0RBK-12" style="edgeStyle=orthogonalEdgeStyle;rounded=0;orthogonalLoop=1;jettySize=auto;html=1;entryX=0.5;entryY=1;entryDx=0;entryDy=0;" edge="1" parent="1" source="D2Ly7EHgwtFrvdyQ0RBK-15" target="D2Ly7EHgwtFrvdyQ0RBK-16">
          <mxGeometry relative="1" as="geometry" />
        </mxCell>
        <mxCell id="D2Ly7EHgwtFrvdyQ0RBK-13" style="edgeStyle=orthogonalEdgeStyle;rounded=0;orthogonalLoop=1;jettySize=auto;html=1;entryX=1;entryY=0.5;entryDx=0;entryDy=0;" edge="1" parent="1" source="D2Ly7EHgwtFrvdyQ0RBK-15" target="D2Ly7EHgwtFrvdyQ0RBK-17">
          <mxGeometry relative="1" as="geometry" />
        </mxCell>
        <mxCell id="D2Ly7EHgwtFrvdyQ0RBK-14" style="edgeStyle=orthogonalEdgeStyle;rounded=0;orthogonalLoop=1;jettySize=auto;html=1;entryX=0.5;entryY=0;entryDx=0;entryDy=0;" edge="1" parent="1" source="D2Ly7EHgwtFrvdyQ0RBK-15" target="D2Ly7EHgwtFrvdyQ0RBK-18">
          <mxGeometry relative="1" as="geometry" />
        </mxCell>
        <mxCell id="D2Ly7EHgwtFrvdyQ0RBK-15" value="desenvolvedor&lt;span style=&quot;white-space: pre;&quot;&gt;&#x9;&lt;/span&gt;" style="rounded=0;whiteSpace=wrap;html=1;" vertex="1" parent="1">
          <mxGeometry x="170" y="180" width="120" height="60" as="geometry" />
        </mxCell>
        <mxCell id="D2Ly7EHgwtFrvdyQ0RBK-16" value="nome" style="ellipse;whiteSpace=wrap;html=1;" vertex="1" parent="1">
          <mxGeometry x="170" y="70" width="120" height="80" as="geometry" />
        </mxCell>
        <mxCell id="D2Ly7EHgwtFrvdyQ0RBK-17" value="cpf" style="ellipse;whiteSpace=wrap;html=1;" vertex="1" parent="1">
          <mxGeometry x="20" y="170" width="120" height="80" as="geometry" />
        </mxCell>
        <mxCell id="D2Ly7EHgwtFrvdyQ0RBK-18" value="data de nascimento" style="ellipse;whiteSpace=wrap;html=1;" vertex="1" parent="1">
          <mxGeometry x="170" y="270" width="120" height="80" as="geometry" />
        </mxCell>
        <mxCell id="D2Ly7EHgwtFrvdyQ0RBK-19" style="edgeStyle=orthogonalEdgeStyle;rounded=0;orthogonalLoop=1;jettySize=auto;html=1;entryX=0.5;entryY=1;entryDx=0;entryDy=0;" edge="1" parent="1" source="D2Ly7EHgwtFrvdyQ0RBK-22" target="D2Ly7EHgwtFrvdyQ0RBK-23">
          <mxGeometry relative="1" as="geometry" />
        </mxCell>
        <mxCell id="D2Ly7EHgwtFrvdyQ0RBK-21" style="edgeStyle=orthogonalEdgeStyle;rounded=0;orthogonalLoop=1;jettySize=auto;html=1;entryX=0.5;entryY=0;entryDx=0;entryDy=0;" edge="1" parent="1" source="D2Ly7EHgwtFrvdyQ0RBK-22" target="D2Ly7EHgwtFrvdyQ0RBK-25">
          <mxGeometry relative="1" as="geometry" />
        </mxCell>
        <mxCell id="D2Ly7EHgwtFrvdyQ0RBK-27" style="edgeStyle=orthogonalEdgeStyle;rounded=0;orthogonalLoop=1;jettySize=auto;html=1;entryX=0;entryY=0.5;entryDx=0;entryDy=0;" edge="1" parent="1" source="D2Ly7EHgwtFrvdyQ0RBK-22" target="D2Ly7EHgwtFrvdyQ0RBK-26">
          <mxGeometry relative="1" as="geometry" />
        </mxCell>
        <mxCell id="D2Ly7EHgwtFrvdyQ0RBK-30" style="edgeStyle=orthogonalEdgeStyle;rounded=0;orthogonalLoop=1;jettySize=auto;html=1;entryX=0;entryY=0.5;entryDx=0;entryDy=0;" edge="1" parent="1" source="D2Ly7EHgwtFrvdyQ0RBK-22" target="D2Ly7EHgwtFrvdyQ0RBK-29">
          <mxGeometry relative="1" as="geometry" />
        </mxCell>
        <mxCell id="D2Ly7EHgwtFrvdyQ0RBK-22" value="projeto" style="rounded=0;whiteSpace=wrap;html=1;" vertex="1" parent="1">
          <mxGeometry x="530" y="180" width="120" height="60" as="geometry" />
        </mxCell>
        <mxCell id="D2Ly7EHgwtFrvdyQ0RBK-23" value="nome" style="ellipse;whiteSpace=wrap;html=1;" vertex="1" parent="1">
          <mxGeometry x="530" y="70" width="120" height="80" as="geometry" />
        </mxCell>
        <mxCell id="D2Ly7EHgwtFrvdyQ0RBK-25" value="data de lançamento" style="ellipse;whiteSpace=wrap;html=1;" vertex="1" parent="1">
          <mxGeometry x="530" y="270" width="120" height="80" as="geometry" />
        </mxCell>
        <mxCell id="D2Ly7EHgwtFrvdyQ0RBK-26" value="genero" style="ellipse;whiteSpace=wrap;html=1;" vertex="1" parent="1">
          <mxGeometry x="680" y="120" width="120" height="80" as="geometry" />
        </mxCell>
        <mxCell id="D2Ly7EHgwtFrvdyQ0RBK-29" value="faixa etaria" style="ellipse;whiteSpace=wrap;html=1;" vertex="1" parent="1">
          <mxGeometry x="680" y="220" width="120" height="80" as="geometry" />
        </mxCell>
      </root>
    </mxGraphModel>
  </diagram>
</mxfile>
